<?xml version="1.0" standalone="no"?>
<!DOCTYPE svg PUBLIC "-//W3C//DTD SVG 20010904//EN"
 "http://www.w3.org/TR/2001/REC-SVG-20010904/DTD/svg10.dtd">
<svg version="1.0" xmlns="http://www.w3.org/2000/svg"
 width="500.000000pt" height="500.000000pt" viewBox="0 0 500.000000 500.000000"
 preserveAspectRatio="xMidYMid meet">

<g transform="translate(0.000000,500.000000) scale(0.100000,-0.100000)"
fill="#000000" stroke="none">
<path d="M2731 3699 c-49 -8 -235 -66 -286 -88 -11 -5 -36 -15 -55 -22 -19 -7
-57 -22 -85 -35 -205 -90 -343 -128 -477 -128 -59 -1 -99 -4 -90 -8 9 -4 60
-7 112 -7 108 -1 217 23 408 90 393 138 466 155 617 146 137 -8 232 -55 266
-132 22 -49 14 -93 -25 -137 -29 -34 -36 -35 -36 -4 0 34 -24 87 -57 122 -66
72 -164 107 -303 107 -151 1 -258 -30 -490 -141 -269 -128 -359 -160 -490
-171 -84 -7 -85 -7 -38 -15 88 -15 239 22 449 110 304 127 437 161 589 151
152 -10 260 -80 260 -169 l0 -41 -37 7 c-21 4 -57 10 -80 13 -24 3 -43 8 -43
12 0 3 9 17 20 31 25 32 25 44 1 30 -11 -5 -40 -10 -66 -10 -37 0 -47 4 -53
21 -7 19 -9 19 -22 4 -7 -9 -30 -23 -49 -31 -33 -14 -37 -14 -52 4 -15 19 -16
19 -38 1 -19 -16 -41 -19 -131 -19 -104 0 -169 -14 -185 -39 -3 -6 -27 -13
-53 -16 -80 -12 -147 -34 -206 -70 -67 -40 -136 -105 -136 -128 0 -9 -16 -38
-35 -63 -42 -55 -71 -115 -84 -175 -12 -58 -6 -297 9 -346 19 -61 40 -104 55
-109 7 -3 25 -30 39 -59 31 -66 121 -162 167 -179 19 -6 57 -24 86 -39 58 -30
183 -67 226 -67 16 0 56 -16 88 -36 114 -69 261 -101 341 -75 67 22 67 94 1
163 l-26 27 27 32 c45 53 78 129 83 191 7 68 -2 75 -68 58 -57 -16 -110 -41
-248 -118 -76 -42 -121 -62 -135 -58 -12 3 -46 27 -75 54 -63 56 -63 73 1 95
l43 14 -41 13 c-32 10 -46 10 -63 0 -30 -15 -42 -3 -16 16 12 9 35 14 56 12
24 -2 35 1 32 8 -7 19 -53 38 -90 37 -26 -1 -32 2 -24 10 15 15 87 13 106 -3
20 -17 29 -7 17 17 -18 32 -51 56 -90 63 l-37 8 48 1 c50 1 56 -2 95 -53 l22
-29 0 38 c0 51 -27 104 -56 111 -33 8 -30 17 10 35 33 15 34 15 70 -21 39 -40
46 -80 26 -149 l-10 -35 35 34 c22 21 38 50 46 81 7 27 16 49 20 49 13 0 20
-51 13 -100 -4 -28 -4 -50 -2 -50 17 0 58 84 58 120 0 22 4 40 9 40 12 0 21
-37 21 -90 l0 -45 20 30 c11 16 22 49 26 73 5 35 9 42 23 36 9 -4 37 -9 63
-12 32 -3 53 -11 69 -28 20 -21 21 -27 9 -49 -18 -34 -3 -46 20 -17 16 20 22
21 40 12 13 -7 19 -17 16 -26 -3 -8 -9 -21 -12 -29 -9 -23 19 -18 34 6 9 14
20 19 33 16 26 -7 43 12 112 129 l58 96 -30 47 c-20 31 -28 54 -24 69 6 25
-12 30 -21 6 -10 -26 -38 -11 -52 28 l-13 38 37 16 c68 30 157 77 192 102 l35
24 -35 -6 c-19 -4 -62 -9 -95 -12 l-60 -5 35 18 c19 9 82 40 140 68 114 55
225 123 217 131 -3 3 -31 1 -63 -5 -32 -6 -98 -11 -147 -11 l-88 0 21 28 c12
15 28 42 36 61 52 125 -59 267 -236 301 -62 12 -173 11 -249 -1z m152 -16 c-7
-2 -21 -2 -30 0 -10 3 -4 5 12 5 17 0 24 -2 18 -5z m127 -18 c0 -2 -9 -3 -19
-2 -11 0 -18 5 -15 9 4 6 34 0 34 -7z m146 -80 c6 -6 17 -22 24 -35 7 -14 9
-20 4 -15 -5 6 -25 28 -44 50 -30 33 -20 33 16 0z m-290 -21 c115 -31 200
-125 191 -210 -4 -42 -48 -118 -73 -128 -8 -3 -2 11 13 31 23 30 28 46 28 92
-1 35 -8 67 -19 86 -24 40 -90 88 -146 106 -64 20 -287 18 -360 -4 -90 -27
-109 -30 -71 -12 128 59 307 75 437 39z m-117 -198 l24 -14 -22 -7 c-39 -12
-11 -24 102 -42 59 -10 107 -21 107 -24 0 -3 -18 -13 -41 -22 -35 -14 -40 -20
-37 -43 5 -41 28 -50 80 -33 23 7 47 13 51 11 5 -1 6 1 4 5 -3 5 7 22 21 39
l27 31 100 -6 100 -6 -63 -28 c-35 -16 -111 -44 -170 -63 -59 -18 -129 -41
-155 -50 -42 -14 -63 -15 -150 -6 -56 6 -174 16 -262 22 -237 17 -248 18 -240
38 4 9 10 28 13 42 8 36 48 97 74 111 23 12 215 30 313 29 30 -1 58 5 70 14
24 19 24 19 54 2z m-539 -91 c0 -3 -7 -22 -15 -42 -8 -19 -15 -44 -15 -54 0
-17 -9 -19 -105 -19 -58 0 -105 4 -105 9 0 12 67 57 115 77 60 25 125 40 125
29z m-42 -152 c-10 -2 -28 -2 -40 0 -13 2 -5 4 17 4 22 1 32 -1 23 -4z m-205
-10 c4 -3 17 -7 30 -8 12 -1 56 -5 98 -9 l76 -8 3 -57 c4 -94 5 -99 11 -95 3
2 6 -13 7 -32 1 -31 0 -33 -13 -20 -8 8 -15 19 -15 25 0 6 -7 11 -15 11 -8 0
-15 6 -15 14 0 20 -13 27 -68 35 -35 5 -47 11 -47 23 0 10 -6 23 -13 30 -6 6
-12 19 -12 28 0 13 -2 13 -10 0 -6 -9 -5 -17 2 -21 7 -4 6 -9 -1 -14 -9 -5 -9
-11 1 -23 11 -15 11 -15 -3 -4 -20 15 -53 108 -44 122 7 12 19 13 28 3z m274
1 c-3 -3 -12 -4 -19 -1 -8 3 -5 6 6 6 11 1 17 -2 13 -5z m328 -20 c233 -17
265 -22 247 -33 -12 -7 -181 7 -402 33 -159 19 -95 19 155 0z m-197 -30 c61
-7 63 -8 88 -51 31 -51 49 -63 101 -63 61 0 74 -16 24 -30 -77 -21 -177 -14
-237 15 -58 28 -124 97 -124 128 0 17 5 19 43 13 23 -3 70 -8 105 -12z m-464
-40 c5 -23 3 -41 -6 -52 -10 -12 -10 -14 0 -8 6 4 12 3 12 -2 0 -5 -8 -12 -17
-15 -16 -4 -31 -30 -76 -125 l-11 -24 -10 22 c-8 17 -5 38 12 86 22 64 71 154
83 154 4 0 10 -16 13 -36z m779 20 c24 -7 21 -24 -5 -25 -13 -1 -6 -5 15 -8
64 -10 46 -25 -28 -22 -38 1 -73 5 -77 7 -19 12 -5 24 30 26 20 1 6 4 -32 7
-46 4 -71 11 -74 20 -4 11 10 12 74 7 44 -4 87 -10 97 -12z m206 -15 c-15 -9
-32 -2 -24 11 3 5 13 6 21 3 12 -4 13 -8 3 -14z m-129 1 c0 -5 -9 -10 -20 -10
-11 0 -20 5 -20 10 0 6 9 10 20 10 11 0 20 -4 20 -10z m-200 -20 c0 -5 -4 -10
-10 -10 -5 0 -10 5 -10 10 0 6 5 10 10 10 6 0 10 -4 10 -10z m394 -56 c10 -26
7 -34 -11 -34 -11 0 -34 -25 -57 -61 -59 -92 -139 -124 -186 -74 -27 29 -29
25 35 58 28 14 82 48 120 75 77 55 90 60 99 36z m-1041 -35 c-4 -15 -8 -17
-14 -8 -6 11 4 28 18 29 0 0 -1 -9 -4 -21z m1108 -29 c10 0 31 -20 49 -45 l32
-46 -32 -49 c-45 -70 -106 -135 -114 -121 -4 6 -12 8 -18 5 -7 -4 -8 -2 -4 4
4 8 0 12 -10 12 -14 0 -15 3 -7 11 13 13 47 4 38 -10 -3 -5 0 -13 6 -17 7 -4
9 -3 5 4 -3 6 4 20 16 32 22 20 22 22 6 51 -10 16 -15 36 -12 44 4 8 -1 26
-10 40 -16 24 -15 25 4 25 11 0 20 4 20 9 0 15 -38 19 -56 6 -17 -12 -17 -14
-1 -38 22 -35 22 -37 -10 -37 -55 0 -58 13 -18 75 34 53 39 57 67 51 17 -3 39
-6 49 -6z m-1131 -35 c0 -8 -7 -15 -15 -15 -16 0 -20 12 -8 23 11 12 23 8 23
-8z m0 -50 c10 -12 10 -18 0 -29 -14 -18 -40 -10 -40 13 0 32 20 40 40 16z
m1070 -69 c0 -2 3 -12 6 -21 5 -13 2 -16 -17 -13 -31 4 -39 38 -10 38 12 0 21
-2 21 -4z m-1127 -114 c2 -48 8 -97 12 -109 4 -14 3 -23 -3 -23 -19 0 -62 206
-47 230 5 8 10 8 20 0 8 -7 15 -43 18 -98z m1061 63 c-7 -17 -14 -18 -40 -8
-16 6 -16 7 2 14 31 12 44 10 38 -6z m-941 -320 c16 -28 41 -63 55 -79 24 -25
24 -27 5 -17 -26 13 -89 85 -110 124 -13 26 -13 28 3 25 10 -1 31 -26 47 -53z"/>
<path d="M2691 3289 c-80 -32 -61 -149 24 -149 59 0 92 55 69 115 -5 13 -55
47 -66 44 -2 0 -14 -5 -27 -10z m27 -52 c4 -20 -25 -34 -40 -19 -15 15 -1 44
19 40 10 -2 19 -11 21 -21z"/>
<path d="M3005 2839 c-4 -6 -5 -13 -2 -16 7 -7 27 6 27 18 0 12 -17 12 -25 -2z"/>
<path d="M3020 2814 c0 -3 4 -13 10 -23 8 -16 6 -17 -17 -13 -19 4 -24 1 -21
-9 2 -8 19 -15 36 -17 27 -3 32 0 32 18 0 12 -6 28 -14 36 -15 15 -26 18 -26
8z"/>
<path d="M1610 3300 c8 -5 22 -9 30 -9 10 0 8 3 -5 9 -27 12 -43 12 -25 0z"/>
<path d="M1280 1575 l0 -195 35 0 35 0 0 73 c0 91 6 111 36 127 20 11 28 11
49 0 24 -13 25 -17 25 -107 l0 -93 40 0 40 0 0 94 c0 51 -5 107 -11 125 -19
53 -99 79 -145 46 -12 -8 -24 -11 -28 -8 -3 3 -6 35 -6 70 l0 63 -35 0 -35 0
0 -195z"/>
<path d="M1834 1756 c-3 -8 -4 -25 -2 -38 3 -20 9 -23 43 -23 39 0 40 1 40 35
0 33 -2 35 -38 38 -26 2 -39 -1 -43 -12z"/>
<path d="M1002 1735 c-60 -26 -80 -127 -33 -169 10 -9 52 -27 92 -39 59 -18
75 -27 77 -44 7 -46 -75 -54 -144 -13 l-31 18 -17 -29 c-9 -16 -14 -34 -11
-39 12 -20 81 -42 135 -44 97 -2 150 38 150 114 0 45 -43 84 -115 105 -65 18
-85 30 -85 51 0 34 72 39 142 9 12 -5 21 2 33 24 l16 32 -43 19 c-51 23 -120
25 -166 5z"/>
<path d="M1723 1640 c-27 -16 -33 -17 -33 -5 0 11 -11 15 -40 15 l-40 0 0
-135 0 -135 40 0 40 0 0 83 c0 81 1 83 29 100 16 9 36 17 45 17 12 0 16 10 16
40 0 46 -10 49 -57 20z"/>
<path d="M2095 1645 c-19 -10 -31 -12 -33 -6 -2 6 -19 11 -38 11 l-34 0 0
-135 0 -135 35 0 35 0 0 79 c0 64 4 83 21 105 11 14 29 26 39 26 35 0 50 -38
50 -127 l0 -83 40 0 40 0 0 88 c0 73 3 92 18 105 22 20 41 21 65 3 14 -11 17
-29 17 -105 l0 -91 40 0 40 0 0 103 c0 123 -17 162 -74 172 -42 8 -90 -1 -107
-21 -10 -13 -14 -12 -30 2 -26 23 -88 28 -124 9z"/>
<path d="M2603 1646 c-14 -10 -24 -12 -28 -6 -3 5 -22 10 -41 10 l-34 0 0
-185 0 -185 40 0 40 0 0 59 0 59 39 -14 c53 -18 103 -3 136 40 20 27 25 44 25
93 0 53 -4 64 -33 97 -26 31 -40 39 -77 43 -31 3 -52 0 -67 -11z m86 -82 c28
-35 26 -69 -4 -99 -46 -47 -105 -18 -105 52 0 70 68 100 109 47z"/>
<path d="M1840 1515 l0 -135 35 0 35 0 0 135 0 135 -35 0 -35 0 0 -135z"/>
</g>
</svg>
